<svg width="22" height="22" viewBox="0 0 22 22" fill="none" xmlns="http://www.w3.org/2000/svg">
<g clip-path="url(#clip0_79_2460)">
<path d="M16.4235 9.70145C18.486 7.63895 18.6149 5.18543 18.5505 4.09145C18.5397 3.92471 18.4687 3.76758 18.3505 3.64944C18.2324 3.53129 18.0753 3.46022 17.9085 3.44949C16.8145 3.38504 14.3627 3.51223 12.2985 5.57645L6.875 11L11 15.125L16.4235 9.70145Z" fill="none" stroke-width="1.5" stroke-linecap="round" stroke-linejoin="round"/>
<path d="M11.6874 6.1875H6.38931C6.20721 6.18758 6.03259 6.25991 5.90376 6.38859L2.95181 9.34055C2.86168 9.43087 2.79847 9.5445 2.76925 9.66871C2.74003 9.79292 2.74595 9.92281 2.78635 10.0438C2.82676 10.1649 2.90005 10.2723 2.99802 10.354C3.096 10.4358 3.21479 10.4886 3.3411 10.5067L6.87485 11" fill="none" stroke-width="1.5" stroke-linecap="round" stroke-linejoin="round"/>
<path d="M15.8125 10.3125V15.6105C15.8124 15.7926 15.7401 15.9673 15.6114 16.0961L12.6595 19.048C12.5691 19.1382 12.4555 19.2014 12.3313 19.2306C12.2071 19.2598 12.0772 19.2539 11.9562 19.2135C11.8351 19.1731 11.7277 19.0998 11.646 19.0018C11.5642 18.9039 11.5114 18.7851 11.4933 18.6587L11 15.125" fill="none" stroke-width="1.5" stroke-linecap="round" stroke-linejoin="round"/>
<path d="M8.12625 16.1408C7.79367 16.8704 6.67305 18.5625 3.4375 18.5625C3.4375 15.327 5.12961 14.2064 5.85922 13.8738" fill="none" stroke-width="1.5" stroke-linecap="round" stroke-linejoin="round"/>
</g>
<defs>
<clipPath id="clip0_79_2460">
<rect width="22" height="22" stroke="none" />
</clipPath>
</defs>
</svg>
