<svg xmlns="http://www.w3.org/2000/svg" width="5" height="6" viewBox="0 0 5 6" fill="none">
<path d="M2.90821 2.98624L4.93321 0.961238C4.97871 0.908099 5.00249 0.839744 4.99979 0.769834C4.99709 0.699924 4.96811 0.633608 4.91864 0.584137C4.86917 0.534666 4.80285 0.505685 4.73294 0.502985C4.66303 0.500284 4.59468 0.524064 4.54154 0.569571L2.51654 2.59457L0.49154 0.566793C0.438401 0.521286 0.370046 0.497507 0.300136 0.500207C0.230226 0.502907 0.16391 0.531889 0.114439 0.581359C0.0649685 0.63083 0.0359871 0.697146 0.0332868 0.767056C0.0305865 0.836966 0.0543661 0.905321 0.0998734 0.95846L2.12487 2.98624L0.0970955 5.01124C0.0680173 5.03614 0.0444005 5.06678 0.0277274 5.10125C0.0110542 5.13571 0.00168463 5.17325 0.000206994 5.2115C-0.00127064 5.24976 0.00517545 5.2879 0.0191406 5.32355C0.0331058 5.3592 0.0542886 5.39157 0.0813594 5.41864C0.10843 5.44571 0.140804 5.46689 0.17645 5.48086C0.212096 5.49482 0.250244 5.50127 0.288499 5.49979C0.326755 5.49832 0.364291 5.48895 0.398754 5.47227C0.433216 5.4556 0.46386 5.43198 0.488762 5.4029L2.51654 3.3779L4.54154 5.4029C4.59468 5.44841 4.66303 5.47219 4.73294 5.46949C4.80285 5.46679 4.86917 5.43781 4.91864 5.38834C4.96811 5.33887 4.99709 5.27255 4.99979 5.20264C5.00249 5.13273 4.97871 5.06438 4.93321 5.01124L2.90821 2.98624Z" fill="black"/>
</svg>