<svg width="20" height="20" viewBox="0 0 20 20" fill="none" xmlns="http://www.w3.org/2000/svg">
<rect x="0.75" y="0.75" width="18.5" height="18.5" rx="9.25" fill="none" stroke-width="1.5"/>
<path fill-rule="evenodd" clip-rule="evenodd" d="M5.74666 6.36354H4.0912C3.8402 6.36354 3.63672 6.16007 3.63672 5.90907C3.63672 5.65807 3.8402 5.45459 4.0912 5.45459H8.90922C9.16023 5.45459 9.36371 5.65807 9.36371 5.90909C9.36371 6.16008 9.16025 6.36356 8.90925 6.36358L7.72763 6.36368L6.95235 6.36354V12.1234C6.95235 12.4563 6.68245 12.7262 6.3495 12.7262C6.01656 12.7262 5.74666 12.4563 5.74666 12.1234V6.36354ZM10.053 16.3613C7.55943 16.4351 5.41491 14.8138 4.50629 13.8302C4.35355 13.6648 4.41197 13.4088 4.61165 13.3062C4.75628 13.2319 4.93285 13.2635 5.05755 13.3685C5.84316 14.0302 7.93991 15.2113 10.0135 15.15C12.1421 15.087 14.0349 13.9832 14.8711 13.3239C14.978 13.2396 15.1222 13.2175 15.2471 13.2724C15.4656 13.3685 15.5286 13.6481 15.3623 13.8185C14.3997 14.805 12.5325 16.288 10.053 16.3613ZM11.0917 6.36354H12.7471V12.1234C12.7471 12.4563 13.017 12.7262 13.35 12.7262C13.6829 12.7262 13.9528 12.4563 13.9528 12.1234V6.36354L15.0006 6.36368L15.9097 6.36359C16.1607 6.36356 16.3642 6.16009 16.3642 5.90909C16.3642 5.65808 16.1607 5.45459 15.9097 5.45459H11.0917C10.8407 5.45459 10.6372 5.65807 10.6372 5.90907C10.6372 6.16007 10.8407 6.36354 11.0917 6.36354Z" stroke="none" />
</svg>
