<svg width="22" height="22" viewBox="0 0 22 22" fill="none" xmlns="http://www.w3.org/2000/svg">
<path d="M13.6412 4.75381C12.3386 3.95448 8.9909 2.42181 5.9769 2.81323C7.80107 4.06906 8.7599 4.74373 11.3486 7.04823M17.2473 8.35906C18.0467 9.66256 19.5793 13.0093 19.1879 16.0233C17.9321 14.2001 17.2574 13.2412 14.9529 10.6526M9.6014 10.4665L3.1389 16.929C2.61457 17.4533 2.62282 18.3104 3.15724 18.8448C3.69074 19.3783 4.54874 19.3856 5.07307 18.8622L11.5347 12.3997M10.9883 8.45714L13.544 11.0119C13.8282 11.2961 14.2865 11.297 14.5697 11.0146L17.735 7.84848C17.8022 7.7811 17.8555 7.70113 17.8918 7.61314C17.9281 7.52515 17.9467 7.43086 17.9465 7.33568C17.9464 7.2405 17.9274 7.14628 17.8908 7.05842C17.8542 6.97056 17.8006 6.89078 17.7332 6.82364L15.1775 4.26798C15.1103 4.20051 15.0306 4.14693 14.9427 4.11032C14.8548 4.07371 14.7606 4.05477 14.6655 4.0546C14.5703 4.05443 14.476 4.07303 14.388 4.10933C14.3 4.14562 14.22 4.19891 14.1527 4.26614L10.9865 7.43139C10.9191 7.49879 10.8657 7.57882 10.8293 7.66689C10.793 7.75497 10.7743 7.84936 10.7745 7.94465C10.7747 8.03994 10.7936 8.13426 10.8303 8.22221C10.867 8.31015 10.9207 8.38999 10.9883 8.45714Z" fill="none" stroke-width="1.375" stroke-linecap="round" stroke-linejoin="round"/>
</svg>
