<svg width="22" height="22" viewBox="0 0 22 22" fill="none" xmlns="http://www.w3.org/2000/svg">
<g clip-path="url(#clip0_79_2466)">
<path d="M16.5 10.3125C17.3006 10.3119 18.0903 10.498 18.8064 10.856C19.5224 11.2141 20.1451 11.7342 20.625 12.375" fill="none" stroke-width="1.5" stroke-linecap="round" stroke-linejoin="round"/>
<path d="M1.375 12.375C1.85487 11.7342 2.47758 11.2141 3.19365 10.856C3.90971 10.498 4.69941 10.3119 5.5 10.3125" fill="none" stroke-width="1.5" stroke-linecap="round" stroke-linejoin="round"/>
<path d="M11 15.8125C12.8985 15.8125 14.4375 14.2735 14.4375 12.375C14.4375 10.4765 12.8985 8.9375 11 8.9375C9.10152 8.9375 7.5625 10.4765 7.5625 12.375C7.5625 14.2735 9.10152 15.8125 11 15.8125Z" fill="none" stroke-width="1.5" stroke-linecap="round" stroke-linejoin="round"/>
<path d="M6.1875 18.5625C6.68103 17.725 7.38458 17.0308 8.2286 16.5485C9.07262 16.0662 10.0279 15.8125 11 15.8125C11.9721 15.8125 12.9274 16.0662 13.7714 16.5485C14.6154 17.0308 15.319 17.725 15.8125 18.5625" fill="none" stroke-width="1.5" stroke-linecap="round" stroke-linejoin="round"/>
<path d="M13.8359 6.875C13.9645 6.37705 14.2301 5.92513 14.6027 5.57056C14.9752 5.21599 15.4397 4.97299 15.9433 4.86914C16.447 4.7653 16.9697 4.80478 17.4521 4.9831C17.9345 5.16142 18.3572 5.47143 18.6723 5.87793C18.9873 6.28443 19.182 6.77112 19.2343 7.28273C19.2867 7.79435 19.1945 8.31038 18.9682 8.77223C18.742 9.23408 18.3908 9.62324 17.9545 9.89551C17.5182 10.1678 17.0143 10.3122 16.5 10.3125" fill="none" stroke-width="1.5" stroke-linecap="round" stroke-linejoin="round"/>
<path d="M5.49959 10.3125C4.98531 10.3122 4.4814 10.1678 4.0451 9.89551C3.6088 9.62324 3.25759 9.23408 3.03135 8.77223C2.80512 8.31038 2.71293 7.79435 2.76525 7.28273C2.81757 6.77112 3.0123 6.28443 3.32734 5.87793C3.64237 5.47143 4.06508 5.16142 4.54746 4.9831C5.02984 4.80478 5.55256 4.7653 6.05625 4.86914C6.55994 4.97299 7.02442 5.21599 7.39694 5.57056C7.76946 5.92513 8.03508 6.37705 8.16365 6.875" fill="none" stroke-width="1.5" stroke-linecap="round" stroke-linejoin="round"/>
</g>
<defs>
<clipPath id="clip0_79_2466">
<rect width="22" height="22" stroke="none" />
</clipPath>
</defs>
</svg>
