<svg xmlns="http://www.w3.org/2000/svg" xmlns:xlink="http://www.w3.org/1999/xlink" version="1.1" x="0px" y="0px" viewBox="0 0 64 64" enable-background="new 0 0 64 64" xml:space="preserve"><g><path d="M61.383,2.066c-0.048-0.019-0.1-0.018-0.149-0.029c-0.073-0.018-0.143-0.045-0.222-0.045H15.008   c-0.001,0-0.003,0.001-0.004,0.001c-0.257-0.001-0.515,0.096-0.711,0.292L2.281,14.297c-0.206,0.206-0.296,0.478-0.285,0.747   v45.964c0,0.553,0.447,1,1,1H49c0.13,0,0.26-0.026,0.382-0.077c0.123-0.051,0.234-0.124,0.326-0.217l6.016-6.016   c0.001-0.001,0.001-0.001,0.002-0.002l5.992-5.992c0.093-0.092,0.166-0.203,0.217-0.326c0.051-0.122,0.077-0.252,0.077-0.382V2.992   C62.012,2.571,61.751,2.214,61.383,2.066z M31.004,43.008V56.01H21.002V43.008H31.004z M21.002,58.01h10.002v1.998H21.002V58.01z    M33.004,42.008c0-0.553-0.447-1-1-1H20.002c-0.553,0-1,0.447-1,1v18H9.994V16.004h32.002v44.004h-8.992V42.008z M15.414,3.992   H58.59l-4.278,4.278c-0.001,0.001-0.001,0.001-0.002,0.002l-5.731,5.731H5.402L15.414,3.992z M43.996,16.004H48v44.004h-4.004   V16.004z M50,15.41l4.018-4.018v43.184L50,58.594V15.41z M56.018,9.393l3.994-3.994v43.184l-3.994,3.994V9.393z M3.996,16.004   h3.998v44.004H3.996V16.004z"/><path d="M20.563,11.401c3.063,0.382,7.125,0.592,11.436,0.592s8.372-0.21,11.436-0.592C48.089,10.822,49,10.083,49,9.001   s-0.911-1.821-5.566-2.4c-3.063-0.382-7.125-0.592-11.436-0.592s-8.372,0.21-11.436,0.592c-4.655,0.579-5.566,1.318-5.566,2.4   S15.907,10.822,20.563,11.401z M31.998,8.009c6.591,0,11.466,0.488,13.78,0.992c-2.314,0.504-7.189,0.992-13.78,0.992   s-11.466-0.488-13.78-0.992C20.532,8.497,25.407,8.009,31.998,8.009z"/><path d="M23.036,47.006h-0.011c-0.552,0-0.994,0.447-0.994,1s0.452,1,1.005,1c0.552,0,1-0.447,1-1S23.588,47.006,23.036,47.006z"/><path d="M26.039,47.006h-0.011c-0.552,0-0.994,0.447-0.994,1s0.452,1,1.005,1c0.552,0,1-0.447,1-1S26.591,47.006,26.039,47.006z"/><path d="M29.042,47.006h-0.011c-0.552,0-0.994,0.447-0.994,1s0.452,1,1.005,1c0.552,0,1-0.447,1-1S29.594,47.006,29.042,47.006z"/><path d="M23.036,50.009h-0.011c-0.552,0-0.994,0.447-0.994,1s0.452,1,1.005,1c0.552,0,1-0.447,1-1S23.588,50.009,23.036,50.009z"/><path d="M26.039,50.009h-0.011c-0.552,0-0.994,0.447-0.994,1s0.452,1,1.005,1c0.552,0,1-0.447,1-1S26.591,50.009,26.039,50.009z"/><path d="M29.042,50.009h-0.011c-0.552,0-0.994,0.447-0.994,1s0.452,1,1.005,1c0.552,0,1-0.447,1-1S29.594,50.009,29.042,50.009z"/><path d="M23.036,53.012h-0.011c-0.552,0-0.994,0.447-0.994,1s0.452,1,1.005,1c0.552,0,1-0.447,1-1S23.588,53.012,23.036,53.012z"/><path d="M26.039,53.012h-0.011c-0.552,0-0.994,0.447-0.994,1s0.452,1,1.005,1c0.552,0,1-0.447,1-1S26.591,53.012,26.039,53.012z"/><path d="M29.042,53.012h-0.011c-0.552,0-0.994,0.447-0.994,1s0.452,1,1.005,1c0.552,0,1-0.447,1-1S29.594,53.012,29.042,53.012z"/><path d="M23.002,46.007h6.007c0.553,0,1-0.447,1-1s-0.447-1-1-1h-6.007c-0.553,0-1,0.447-1,1S22.449,46.007,23.002,46.007z"/><path d="M30.995,26.012h-4.019v-0.01c0-0.552,0.448-1,1-1h2.999c0.007,0,0.013-0.004,0.02-0.004   c1.644-0.011,2.979-1.35,2.979-2.996c0-1.65-1.34-2.992-2.988-2.997c-0.004,0-0.006-0.002-0.01-0.002h-9.996c-0.553,0-1,0.447-1,1   s0.447,1,1,1h9.991c0.002,0,0.003,0.001,0.005,0.001c0.551,0,0.998,0.447,0.998,0.998S31.526,23,30.976,23   c-0.003,0-0.006,0.002-0.01,0.002h-2.989c-1.654,0-3,1.346-3,3v0.01h-3.981c-3.309,0-6,2.691-6,6s2.691,6,6,6   c2.032,0,3.9-1.029,5-2.691c1.1,1.662,2.968,2.691,5,2.691c3.309,0,6-2.691,6-6S34.304,26.012,30.995,26.012z M30.995,36.012   c-1.586,0-3.023-0.942-3.662-2.401c-0.159-0.363-0.519-0.599-0.916-0.599h-0.844c-0.397,0-0.757,0.235-0.916,0.599   c-0.639,1.459-2.076,2.401-3.662,2.401c-2.206,0-4-1.794-4-4s1.794-4,4-4h10c2.206,0,4,1.794,4,4S33.201,36.012,30.995,36.012z"/><path d="M22.995,31.012h-1v-1c0-0.553-0.447-1-1-1s-1,0.447-1,1v1h-1c-0.553,0-1,0.447-1,1s0.447,1,1,1h1v1c0,0.553,0.447,1,1,1   s1-0.447,1-1v-1h1c0.553,0,1-0.447,1-1S23.548,31.012,22.995,31.012z"/><path d="M29.059,31.009h-0.011c-0.552,0-0.994,0.447-0.994,1s0.452,1,1.005,1c0.552,0,1-0.447,1-1S29.61,31.009,29.059,31.009z"/><path d="M31.059,31.009c0.552,0,1-0.447,1-1s-0.448-1-1-1h-0.011c-0.552,0-0.994,0.447-0.994,1S30.506,31.009,31.059,31.009z"/><path d="M31.061,33.011H31.05c-0.552,0-0.994,0.447-0.994,1s0.452,1,1.005,1c0.552,0,1-0.447,1-1S31.612,33.011,31.061,33.011z"/><path d="M33.061,31.011H33.05c-0.552,0-0.994,0.447-0.994,1s0.452,1,1.005,1c0.552,0,1-0.447,1-1S33.612,31.011,33.061,31.011z"/></g></svg>