<svg width="22" height="22" viewBox="0 0 22 22" fill="none" xmlns="http://www.w3.org/2000/svg">
<path d="M5.49126 4.51825C5.62 4.64716 5.69232 4.8219 5.69232 5.00409C5.69232 5.18628 5.62 5.36101 5.49126 5.48992C4.76771 6.21345 4.19376 7.07241 3.80217 8.01775C3.41059 8.96309 3.20904 9.97631 3.20904 10.9995C3.20904 12.0228 3.41059 13.036 3.80217 13.9813C4.19376 14.9267 4.76771 15.7856 5.49126 16.5092C5.61643 16.6389 5.68564 16.8126 5.68399 16.9929C5.68234 17.1731 5.60996 17.3455 5.48243 17.4729C5.3549 17.6003 5.18243 17.6726 5.00217 17.674C4.82191 17.6755 4.64828 17.6061 4.51867 17.4808C0.939089 13.9013 0.939089 8.09784 4.51867 4.51825C4.64758 4.38951 4.82232 4.31719 5.00451 4.31719C5.18669 4.31719 5.36235 4.38951 5.49126 4.51825ZM17.4813 4.51825C21.0608 8.09784 21.0608 13.9022 17.4813 17.4818C17.3509 17.6032 17.1786 17.6693 17.0004 17.6662C16.8223 17.663 16.6524 17.5909 16.5264 17.4649C16.4005 17.3389 16.3283 17.169 16.3252 16.9909C16.322 16.8128 16.3881 16.6404 16.5096 16.5101C17.2333 15.7865 17.8073 14.9275 18.199 13.9821C18.5907 13.0367 18.7923 12.0234 18.7923 11C18.7923 9.97666 18.5907 8.96334 18.199 8.01791C17.8073 7.07248 17.2333 6.21346 16.5096 5.48992C16.442 5.42698 16.3879 5.35108 16.3503 5.26675C16.3127 5.18242 16.2925 5.09138 16.2909 4.99907C16.2893 4.90676 16.3062 4.81506 16.3408 4.72946C16.3754 4.64385 16.4269 4.56609 16.4921 4.5008C16.5574 4.43552 16.6352 4.38405 16.7208 4.34948C16.8064 4.3149 16.8981 4.29792 16.9904 4.29955C17.0827 4.30117 17.1737 4.32138 17.2581 4.35896C17.3424 4.39653 17.4183 4.45071 17.4813 4.51825ZM8.08359 7.11059C8.21233 7.23949 8.28465 7.41423 8.28465 7.59642C8.28465 7.77861 8.21233 7.95335 8.08359 8.08226C7.7004 8.46531 7.39644 8.92011 7.18905 9.42067C6.98167 9.92122 6.87493 10.4577 6.87493 10.9995C6.87493 11.5414 6.98167 12.0779 7.18905 12.5784C7.39644 13.079 7.7004 13.5338 8.08359 13.9168C8.20503 14.0472 8.27114 14.2195 8.268 14.3977C8.26486 14.5758 8.1927 14.7457 8.06674 14.8717C7.94078 14.9976 7.77084 15.0698 7.59273 15.0729C7.41462 15.0761 7.24225 15.0099 7.11192 14.8885C6.08055 13.8571 5.50114 12.4582 5.50114 10.9995C5.50114 9.54092 6.08055 8.14203 7.11192 7.11059C7.24083 6.98184 7.41557 6.90953 7.59775 6.90953C7.77994 6.90953 7.95468 6.98184 8.08359 7.11059ZM14.8898 7.11059C15.9212 8.14203 16.5006 9.54092 16.5006 10.9995C16.5006 12.4582 15.9212 13.8571 14.8898 14.8885C14.8264 14.9542 14.7506 15.0066 14.6668 15.0427C14.5829 15.0787 14.4927 15.0978 14.4014 15.0986C14.3101 15.0994 14.2196 15.0821 14.1351 15.0475C14.0506 15.013 13.9738 14.962 13.9092 14.8975C13.8446 14.833 13.7935 14.7562 13.7589 14.6718C13.7243 14.5873 13.7069 14.4968 13.7076 14.4055C13.7084 14.3142 13.7273 14.224 13.7633 14.1401C13.7993 14.0562 13.8516 13.9803 13.9173 13.9168C14.3003 13.5338 14.6042 13.0791 14.8115 12.5786C15.0188 12.0781 15.1255 11.5417 15.1255 11C15.1255 10.4583 15.0188 9.9219 14.8115 9.42142C14.6042 8.92095 14.3003 8.46621 13.9173 8.08317C13.7958 7.95284 13.7297 7.78047 13.7328 7.60236C13.736 7.42425 13.8081 7.25431 13.9341 7.12835C14.0601 7.00239 14.23 6.93024 14.4081 6.92709C14.5862 6.92395 14.7586 6.99006 14.8889 7.1115M11.0004 9.625C11.3651 9.625 11.7148 9.76987 11.9727 10.0277C12.2306 10.2856 12.3754 10.6353 12.3754 11C12.3754 11.3647 12.2306 11.7144 11.9727 11.9723C11.7148 12.2301 11.3651 12.375 11.0004 12.375C10.6357 12.375 10.286 12.2301 10.0281 11.9723C9.77029 11.7144 9.62542 11.3647 9.62542 11C9.62542 10.6353 9.77029 10.2856 10.0281 10.0277C10.286 9.76987 10.6357 9.625 11.0004 9.625Z" stroke="none" />
</svg>
