<svg width="110" height="104" viewBox="0 0 110 104" fill="none" xmlns="http://www.w3.org/2000/svg">
<path d="M1.13636 4.78409V0.727272H20.25V4.78409H13.125V24H8.26136V4.78409H1.13636ZM24.6653 24H19.3926L27.4267 0.727272H33.7676L41.7903 24H36.5176L30.6881 6.04545H30.5063L24.6653 24ZM24.3358 14.8523H36.7903V18.6932H24.3358V14.8523ZM44.6915 24V0.727272H53.8733C55.6384 0.727272 57.1422 1.06439 58.3847 1.73864C59.6271 2.4053 60.5741 3.33333 61.2256 4.52273C61.8847 5.70454 62.2142 7.06818 62.2142 8.61364C62.2142 10.1591 61.8809 11.5227 61.2142 12.7045C60.5475 13.8864 59.5816 14.8068 58.3165 15.4659C57.0589 16.125 55.5362 16.4545 53.7483 16.4545H47.896V12.5114H52.9528C53.8998 12.5114 54.6801 12.3485 55.2938 12.0227C55.915 11.6894 56.3771 11.2311 56.6801 10.6477C56.9907 10.0568 57.146 9.37879 57.146 8.61364C57.146 7.84091 56.9907 7.16667 56.6801 6.59091C56.3771 6.00757 55.915 5.55682 55.2938 5.23864C54.6725 4.91288 53.8847 4.75 52.9301 4.75H49.6119V24H44.6915Z" stroke="none" />
<g clip-path="url(#clip0_69_1292)">
<path d="M50 47.75C50 43.4402 51.712 39.307 54.7595 36.2595C57.807 33.212 61.9402 31.5 66.25 31.5C70.5598 31.5 74.693 33.212 77.7405 36.2595C80.7879 39.307 82.5 43.4402 82.5 47.75" stroke-width="6" stroke-linecap="round" stroke-linejoin="round" fill="none"/>
<path d="M52.4998 94L43.3373 78.375C42.5216 76.9403 42.3064 75.2411 42.7389 73.6483C43.1713 72.0556 44.2162 70.6985 45.6455 69.8733C47.0747 69.0481 48.7724 68.8217 50.368 69.2435C51.9636 69.6654 53.3276 70.7012 54.1623 72.125L59.9998 81.5V47.75C59.9998 46.0924 60.6583 44.5027 61.8304 43.3306C63.0025 42.1585 64.5922 41.5 66.2498 41.5C67.9074 41.5 69.4971 42.1585 70.6692 43.3306C71.8413 44.5027 72.4998 46.0924 72.4998 47.75V65.25C72.4998 63.5924 73.1583 62.0027 74.3304 60.8306C75.5025 59.6585 77.0922 59 78.7498 59C80.4074 59 81.9971 59.6585 83.1692 60.8306C84.3413 62.0027 84.9998 63.5924 84.9998 65.25V70.25C84.9998 68.5924 85.6583 67.0027 86.8304 65.8306C88.0025 64.6585 89.5922 64 91.2498 64C92.9074 64 94.4971 64.6585 95.6692 65.8306C96.8413 67.0027 97.4998 68.5924 97.4998 70.25V81.5C97.4998 89 94.9998 94 94.9998 94" stroke-width="6" stroke-linecap="round" fill="none" stroke-linejoin="round"/>
</g>
<defs>
<clipPath id="clip0_69_1292">
<rect width="80" height="80" fill="white" transform="translate(30 24)"/>
</clipPath>
</defs>
</svg>
