<svg width="110" height="104" viewBox="0 0 110 104" fill="none" xmlns="http://www.w3.org/2000/svg">
<g clip-path="url(#clip0_69_1292)">
<path d="M50 47.75C50 43.4402 51.712 39.307 54.7595 36.2595C57.807 33.212 61.9402 31.5 66.25 31.5C70.5598 31.5 74.693 33.212 77.7405 36.2595C80.7879 39.307 82.5 43.4402 82.5 47.75" stroke="black" stroke-width="6" stroke-linecap="round" stroke-linejoin="round"/>
<path d="M52.4998 94L43.3373 78.375C42.5216 76.9403 42.3064 75.2411 42.7389 73.6483C43.1713 72.0556 44.2162 70.6985 45.6455 69.8733C47.0747 69.0481 48.7724 68.8217 50.368 69.2435C51.9636 69.6654 53.3276 70.7012 54.1623 72.125L59.9998 81.5V47.75C59.9998 46.0924 60.6583 44.5027 61.8304 43.3306C63.0025 42.1585 64.5922 41.5 66.2498 41.5C67.9074 41.5 69.4971 42.1585 70.6692 43.3306C71.8413 44.5027 72.4998 46.0924 72.4998 47.75V65.25C72.4998 63.5924 73.1583 62.0027 74.3304 60.8306C75.5025 59.6585 77.0922 59 78.7498 59C80.4074 59 81.9971 59.6585 83.1692 60.8306C84.3413 62.0027 84.9998 63.5924 84.9998 65.25V70.25C84.9998 68.5924 85.6583 67.0027 86.8304 65.8306C88.0025 64.6585 89.5922 64 91.2498 64C92.9074 64 94.4971 64.6585 95.6692 65.8306C96.8413 67.0027 97.4998 68.5924 97.4998 70.25V81.5C97.4998 89 94.9998 94 94.9998 94" stroke="black" stroke-width="6" stroke-linecap="round" stroke-linejoin="round"/>
</g>
<defs>
<clipPath id="clip0_69_1292">
<rect width="80" height="80" fill="white" transform="translate(30 24)"/>
</clipPath>
</defs>
</svg>
